<?xml version="1.0" encoding="UTF-8"?>
<svg version="1.1" xmlns="http://www.w3.org/2000/svg" width="266" height="464">
<path d="M0 0 C28.71 0 57.42 0 87 0 C87.33 45.54 87.66 91.08 88 138 C96.71099854 120.03356552 105.36677043 102.13990689 113.72265625 84.0234375 C117.22579832 76.47181777 120.85703159 68.98480047 124.5 61.5 C131.02620937 48.08913177 137.34264327 34.59185595 143.59130859 21.04931641 C145.63224402 16.63141633 147.68577119 12.21955933 149.75 7.8125 C150.07347412 7.11721191 150.39694824 6.42192383 150.73022461 5.70556641 C152.88374375 1.11625625 152.88374375 1.11625625 154 0 C156.7388842 -0.09516211 159.45247941 -0.12554594 162.19165039 -0.11352539 C163.05011063 -0.11367142 163.90857086 -0.11381744 164.79304504 -0.1139679 C167.64460738 -0.11326847 170.49610525 -0.1054747 173.34765625 -0.09765625 C175.31920842 -0.09579218 177.29076105 -0.09436822 179.26231384 -0.09336853 C184.46226267 -0.08954251 189.66218375 -0.07971152 194.86212158 -0.06866455 C200.16393661 -0.05845222 205.4657561 -0.05387129 210.76757812 -0.04882812 C221.17839763 -0.03808933 231.58919651 -0.02101191 242 0 C241.47732804 3.73926242 240.81830232 6.86265372 239.11743164 10.23510742 C238.53530663 11.4037458 238.53530663 11.4037458 237.94142151 12.59599304 C237.51860397 13.42412003 237.09578644 14.25224701 236.66015625 15.10546875 C235.99867836 16.42349236 235.99867836 16.42349236 235.32383728 17.7681427 C233.91084642 20.57842332 232.48667666 23.38287457 231.0625 26.1875 C230.13927868 28.02243681 229.21674642 29.85772047 228.29492188 31.69335938 C223.92338855 40.3774703 219.48409459 49.02159429 214.93359375 57.61328125 C209.78925278 67.32684587 204.88332414 77.15323468 200 87 C193.90641379 99.28714533 187.67956719 111.48659569 181.26409912 123.60876465 C177.82712021 130.11033193 174.42055034 136.62621275 171.07299805 143.17431641 C170.22125308 144.8302947 169.36098714 146.48191376 168.49291992 148.12939453 C167.20971512 150.5681268 165.9558869 153.02010029 164.70703125 155.4765625 C164.12294243 156.56428452 164.12294243 156.56428452 163.52705383 157.67398071 C159.35697577 166.04284234 161.99212388 173.828426 164.61914062 182.3737793 C164.88883793 183.27359685 165.15853523 184.1734144 165.43640518 185.10049915 C166.33564659 188.09401552 167.24595773 191.08404604 168.15625 194.07421875 C168.80516346 196.22663649 169.4533587 198.37927088 170.10089111 200.53210449 C171.49433537 205.15953265 172.89263941 209.78545333 174.2947998 214.4102478 C176.52209166 221.75666811 178.73896729 229.10620498 180.95410156 236.45629883 C183.26779793 244.13151145 185.58223782 251.8064949 187.9006958 259.48027039 C193.31370554 277.39738112 198.70462245 295.32099101 204.078125 313.25 C204.44504456 314.47413919 204.81196411 315.69827839 205.19000244 316.95951271 C207.00724668 323.0225334 208.82416508 329.08565166 210.64086914 335.14883423 C213.66554881 345.24334496 216.69177215 355.33739188 219.7197876 365.43090248 C220.65832992 368.56030508 221.59604926 371.68995344 222.53369141 374.81962585 C225.60955186 385.07987816 228.70663553 395.33316938 231.83789062 405.57666016 C232.45299519 407.59342125 233.06800764 409.61021044 233.68292236 411.62702942 C234.83402908 415.40243678 235.99219097 419.17557791 237.15447998 422.94755554 C237.66739805 424.62811776 238.18004838 426.30876172 238.69238281 427.98950195 C238.92826363 428.74789934 239.16414444 429.50629673 239.40717316 430.28767586 C240.44598838 433.71649568 241 436.37964975 241 440 C211.3 440 181.6 440 151 440 C149.05667372 434.81779659 147.27899992 429.8333074 145.71362305 424.55517578 C145.39957315 423.50061377 145.39957315 423.50061377 145.07917881 422.42474747 C144.38732109 420.09906295 143.69951893 417.77219991 143.01171875 415.4453125 C142.51536831 413.77390181 142.01875939 412.10256785 141.52191162 410.43130493 C140.18470494 405.9307917 138.8509594 401.42925951 137.51783371 396.92753601 C136.12799181 392.23655224 134.73489433 387.54653563 133.34204102 382.85644531 C131.04230233 375.11144117 128.74426498 367.36593417 126.44726562 359.62011719 C123.12094457 348.40409367 119.78814072 337.19000341 116.453125 325.9765625 C116.19527033 325.10954334 115.93741566 324.24252419 115.67174721 323.34923172 C114.6594505 319.94548359 113.64713131 316.54174215 112.63475513 313.13801765 C110.0666912 304.50377034 107.50004314 295.86910233 104.93359375 287.234375 C104.52764958 285.86862163 104.12170478 284.50286845 103.71575928 283.13711548 C102.81048923 280.09141536 101.9052347 277.04571063 101 274 C87.81770738 291.22382884 86.5389907 308.7188547 86.78413153 329.60127473 C86.81905158 333.49701072 86.79631812 337.39245431 86.78030396 341.28825378 C86.75857764 348.62971306 86.78696726 355.97004299 86.834427 363.31134576 C86.89572829 373.25669847 86.87745713 383.20190719 86.86419678 393.1473875 C86.84542417 408.76557802 86.9310973 424.38137962 87 440 C58.29 440 29.58 440 0 440 C0 294.8 0 149.6 0 0 Z " fill="#DA1F2B" transform="translate(12,12)"/>
</svg>
